<?xml version="1.0" standalone="no"?>
<!DOCTYPE svg PUBLIC "-//W3C//DTD SVG 20010904//EN"
 "http://www.w3.org/TR/2001/REC-SVG-20010904/DTD/svg10.dtd">
<svg version="1.0" xmlns="http://www.w3.org/2000/svg"
 width="4000.000000pt" height="4000.000000pt" viewBox="0 0 4000.000000 4000.000000"
 preserveAspectRatio="xMidYMid meet">

<g transform="translate(0.000000,4000.000000) scale(0.100000,-0.100000)"
fill="#000000" stroke="none">
<path d="M18690 34508 c-3 -3 -70 -8 -150 -11 -326 -13 -760 -82 -1076 -171
-138 -39 -189 -96 -189 -211 0 -120 49 -171 207 -216 162 -47 260 -100 349
-189 60 -59 81 -88 99 -135 122 -323 -167 -793 -750 -1216 -203 -148 -405
-267 -713 -421 -401 -200 -588 -326 -836 -563 -217 -208 -379 -431 -511 -700
-116 -236 -181 -442 -227 -712 -28 -169 -26 -589 5 -779 23 -144 65 -328 100
-442 l20 -62 -46 -27 c-422 -240 -655 -414 -949 -710 -633 -636 -994 -1432
-1020 -2248 -13 -421 62 -823 223 -1193 l45 -104 -103 -106 c-564 -582 -943
-1353 -1065 -2167 -25 -172 -25 -623 0 -782 80 -498 302 -924 634 -1217 50
-45 91 -83 92 -86 1 -3 -28 -46 -64 -94 -80 -109 -166 -280 -201 -401 -35
-123 -44 -306 -20 -425 73 -360 344 -628 702 -696 85 -16 268 -15 344 1 24 5
40 -19 307 -472 155 -263 448 -759 651 -1103 203 -344 525 -890 717 -1215 191
-324 553 -936 803 -1360 616 -1043 1020 -1727 1512 -2560 227 -385 536 -907
685 -1160 149 -253 444 -752 655 -1110 1344 -2276 1682 -2845 1740 -2927 267
-378 688 -638 1150 -708 118 -18 342 -20 470 -4 622 75 1126 431 1385 977 65
136 113 287 150 467 15 74 678 3388 1474 7364 l1446 7230 65 13 c177 35 353
113 479 210 141 110 259 285 311 463 28 96 38 306 20 418 -37 232 -150 449
-325 625 -61 62 -177 152 -232 181 -1 1 35 75 81 166 317 634 357 1273 119
1909 -309 826 -1084 1494 -1938 1672 -55 11 -101 22 -104 24 -2 3 10 53 27
112 123 429 123 851 1 1246 -205 666 -749 1233 -1529 1593 -388 179 -839 311
-1277 372 -68 9 -123 20 -123 24 0 5 18 68 40 140 203 670 159 1301 -127 1848
-186 357 -498 692 -884 950 -550 369 -1241 601 -2009 674 -157 15 -631 33
-640 24z m-357 -481 c227 -106 365 -261 413 -465 40 -171 -9 -417 -123 -609
-23 -41 -43 -76 -43 -79 0 -3 -32 -49 -72 -102 -135 -182 -516 -538 -694 -647
-18 -11 -90 -56 -161 -101 -169 -106 -295 -176 -543 -300 -326 -162 -548 -316
-759 -524 -124 -122 -175 -182 -263 -305 -162 -228 -277 -472 -347 -742 -81
-314 -92 -664 -30 -1006 11 -61 16 -113 12 -115 -4 -1 -78 -40 -163 -87 -85
-46 -158 -81 -162 -77 -11 11 -56 201 -79 329 -26 149 -37 484 -20 629 71 598
373 1100 887 1472 111 80 253 161 500 284 779 389 1319 852 1560 1338 90 183
124 318 124 498 0 225 -69 407 -212 559 -28 29 -49 55 -47 58 3 2 34 8 69 13
36 5 69 10 73 11 5 0 41 -14 80 -32z m-386 -3093 c148 -30 266 -105 357 -224
92 -120 157 -288 180 -465 4 -27 9 -57 12 -66 3 -12 -13 -21 -78 -38 -343 -94
-1047 -354 -1588 -586 -85 -37 -161 -70 -169 -73 -12 -4 -13 13 -8 110 20 377
173 736 424 999 262 273 588 401 870 343z m1143 -981 c-8 -3 -96 -35 -195 -70
-173 -63 -400 -150 -515 -198 -30 -13 -127 -53 -216 -90 -181 -75 -157 -54
-268 -251 -200 -355 -290 -701 -289 -1114 0 -444 117 -928 342 -1424 18 -38
28 -73 24 -77 -4 -4 -62 -24 -128 -44 -364 -112 -924 -322 -1438 -539 l-108
-45 -29 47 c-49 76 -165 309 -208 417 -267 667 -282 1364 -42 1958 16 37 25
67 22 67 -10 0 -533 -275 -601 -316 -35 -22 -84 -50 -107 -64 -24 -14 -78 -50
-120 -80 -43 -30 -84 -59 -92 -65 -81 -52 -380 -311 -447 -387 -16 -19 -62
-70 -101 -114 -147 -165 -290 -365 -399 -560 -165 -295 -277 -608 -330 -919
-63 -372 -41 -785 64 -1182 l19 -72 -152 -100 -151 -99 -24 52 c-72 158 -147
446 -172 665 -18 159 -7 514 21 671 49 280 125 510 255 775 320 652 847 1173
1559 1541 81 42 156 88 169 104 27 32 139 98 386 229 622 331 1290 625 1946
858 377 134 1291 432 1325 432 13 -1 13 -1 0 -6z m335 -3223 c-11 -5 -153 -52
-315 -105 -726 -237 -1645 -596 -2251 -879 l-76 -35 -21 -89 c-58 -242 -87
-515 -79 -737 7 -187 23 -298 71 -486 77 -304 72 -537 -16 -803 -91 -277 -312
-536 -536 -630 -33 -14 -93 -31 -134 -37 -356 -55 -748 255 -841 666 -59 262
-67 878 -16 1238 7 43 9 80 6 84 -10 9 -572 -309 -797 -450 -126 -80 -331
-234 -455 -342 -536 -469 -917 -1104 -1064 -1771 -51 -232 -65 -550 -35 -786
45 -353 191 -720 410 -1036 24 -35 44 -67 44 -71 0 -5 -39 -39 -86 -75 l-86
-66 -75 62 c-162 134 -291 298 -388 493 -185 371 -235 783 -155 1275 80 485
296 1006 598 1439 121 174 224 294 419 488 207 206 227 222 598 458 1533 976
3126 1663 4880 2106 365 92 450 111 400 89z m7245 -3272 c210 -54 365 -180
459 -372 55 -113 75 -192 74 -306 -1 -191 -78 -329 -237 -424 -90 -54 -270
-107 -360 -106 l-31 1 41 37 c54 48 108 121 146 195 24 48 27 62 16 68 -10 7
-9 9 4 9 42 0 64 275 33 410 -21 90 -57 184 -65 170 -4 -6 -7 2 -7 17 0 16
-22 64 -52 113 -60 97 -90 132 -104 123 -6 -3 -7 -1 -4 4 4 6 -12 30 -36 53
l-42 42 45 -7 c25 -4 79 -16 120 -27z m-4473 -73 c0 -8 -4 -12 -9 -9 -5 3 -6
10 -3 15 9 13 12 11 12 -6z m-43 -23 c3 -5 -1 -9 -9 -9 -8 0 -12 4 -9 9 3 4 7
8 9 8 2 0 6 -4 9 -8z m-40 -38 c3 -8 2 -12 -4 -9 -6 3 -10 10 -10 16 0 14 7
11 14 -7z m-64 -110 c0 -8 -19 -13 -24 -6 -3 5 1 9 9 9 8 0 15 -2 15 -3z
m-1904 -309 c215 -54 370 -140 514 -284 107 -108 166 -189 234 -327 133 -270
188 -532 206 -983 7 -168 14 -244 28 -296 34 -123 93 -235 165 -312 l31 -33
-80 0 c-205 0 -381 106 -467 282 -49 101 -57 151 -67 408 -12 308 -36 476
-100 702 -97 347 -285 640 -520 812 -36 26 -67 50 -69 52 -10 9 33 2 125 -21z
m-591 -223 c268 -83 466 -271 590 -558 40 -92 82 -231 73 -240 -4 -3 -109 -30
-235 -59 -313 -72 -693 -171 -968 -251 -126 -37 -241 -67 -254 -68 -29 -1 -30
3 -33 184 -1 98 3 159 17 225 19 96 79 252 121 315 14 21 23 44 19 50 -3 6 -1
9 7 8 7 -2 12 5 12 14 -1 10 2 16 6 15 13 -4 62 62 54 75 -4 7 -3 10 1 5 13
-12 104 83 98 102 -3 11 -2 12 4 4 6 -8 27 4 73 43 36 31 64 59 63 64 -1 4 5
7 15 6 9 0 16 4 15 11 -2 7 3 10 10 7 15 -6 80 40 70 50 -4 4 0 4 10 0 11 -4
17 -1 17 7 0 7 3 9 6 6 4 -3 16 0 27 8 25 18 70 12 182 -23z m-865 -112 c-8
-5 -19 -10 -25 -10 -5 0 -3 5 5 10 8 5 20 10 25 10 6 0 3 -5 -5 -10z m-60 -45
c0 -2 -6 -8 -13 -14 -10 -8 -14 -7 -14 2 0 8 6 14 14 14 7 0 13 -1 13 -2z
m-105 -93 c-3 -3 -11 0 -18 7 -9 10 -8 11 6 5 10 -3 15 -9 12 -12z m-130 -92
c-10 -11 -14 -20 -10 -20 5 0 3 -6 -3 -12 -7 -7 -18 -13 -25 -13 -7 0 -12 -6
-12 -14 0 -8 -9 -15 -19 -17 -13 -2 -4 12 30 47 47 48 75 68 39 29z m-116
-144 c9 -11 9 -16 -1 -22 -7 -4 -10 -4 -6 1 4 4 3 14 -3 22 -6 7 -9 13 -6 13
2 0 10 -6 16 -14z m7850 -331 c96 -8 175 -16 177 -17 1 -2 -15 -90 -37 -197
-35 -175 -53 -226 -69 -202 -7 11 -254 35 -274 28 -9 -4 -16 -1 -17 6 0 9 -2
9 -6 0 -3 -10 -8 -9 -20 2 -13 14 -12 33 17 178 29 143 36 180 39 210 1 9 -16
9 190 -8z m-5830 -623 c1 -144 26 -285 71 -397 53 -134 96 -197 238 -354 42
-47 59 -72 51 -77 -7 -4 -9 -3 -6 3 10 16 -47 65 -66 57 -9 -3 -14 -10 -11
-15 3 -5 -3 -6 -12 -2 -13 5 -15 3 -9 -7 5 -9 4 -11 -3 -6 -6 4 -69 -23 -139
-59 -342 -178 -424 -225 -416 -237 3 -7 1 -8 -5 -4 -6 4 -42 -10 -79 -30 -84
-46 -114 -69 -105 -79 4 -5 1 -5 -6 -1 -12 7 -133 -61 -300 -172 -77 -51 -84
-53 -101 -38 -10 9 -20 13 -23 10 -3 -3 -9 0 -14 7 -4 8 -3 10 4 5 23 -14 11
9 -32 68 -86 114 -135 163 -119 119 3 -10 3 -15 -1 -12 -4 4 -8 16 -11 28 -2
12 -19 34 -37 49 -165 135 -300 290 -400 459 -30 51 -57 91 -59 88 -3 -2 -5 4
-6 13 0 9 -19 60 -41 112 -22 52 -49 127 -60 167 l-20 72 126 40 c446 139 993
286 1432 386 l145 32 7 -51 c3 -28 6 -107 7 -174z m-3939 51 c104 -29 286
-120 399 -198 117 -81 273 -239 365 -370 219 -309 328 -684 396 -1350 25 -253
35 -316 66 -440 57 -226 156 -420 290 -564 l56 -61 -54 0 c-174 0 -344 82
-469 226 -142 164 -239 433 -264 729 -26 317 -73 619 -136 875 -50 203 -92
318 -175 480 -143 278 -323 477 -624 693 l-25 17 45 -6 c25 -3 83 -17 130 -31z
m1785 27 c3 -6 -1 -7 -9 -4 -18 7 -21 14 -7 14 6 0 13 -4 16 -10z m7795 -83
c22 -7 207 -28 222 -25 7 2 13 -6 12 -17 -1 -33 -128 -665 -134 -665 -5 1
-109 147 -145 205 -11 17 -26 38 -33 46 -7 8 -28 35 -48 62 -19 26 -38 46 -42
43 -16 -9 -11 80 9 176 11 57 22 118 25 137 2 18 6 36 8 40 5 7 103 5 126 -2z
m-1513 -13 c-3 -3 -12 -4 -19 -1 -8 3 -5 6 6 6 11 1 17 -2 13 -5z m-8871 -105
c152 -21 318 -87 465 -185 86 -57 242 -204 304 -286 l44 -59 -317 -159 c-376
-188 -458 -233 -742 -395 -558 -320 -1119 -696 -1562 -1050 -86 -69 -168 -129
-183 -135 -15 -6 -58 -15 -94 -20 -191 -27 -397 81 -480 252 -83 173 -55 371
84 578 85 128 162 205 330 333 88 67 279 213 424 325 282 218 464 350 626 454
429 278 788 391 1101 347z m7223 -344 c-4 -49 -17 -218 -29 -375 -13 -157 -24
-287 -26 -289 -2 -2 -81 48 -176 111 -210 140 -304 198 -318 198 -5 0 -10 4
-10 8 0 9 -54 37 -56 30 -1 -1 -11 5 -22 15 -12 11 -26 16 -33 11 -8 -5 -10
-3 -4 6 6 10 4 12 -9 7 -9 -4 -15 -3 -12 2 3 5 -7 17 -22 27 l-27 18 95 13
c52 7 104 14 115 16 11 2 39 7 63 11 23 4 40 11 38 14 -2 4 9 7 26 8 76 3 300
144 373 235 17 20 33 34 36 31 3 -4 3 -47 -2 -97z m-636 -6 c-8 -8 -13 -7 -18
2 -5 8 -4 10 3 5 7 -4 12 -2 12 5 0 7 3 9 7 6 4 -4 2 -12 -4 -18z m-90 -154
c-3 -9 -8 -14 -10 -11 -3 3 -2 9 2 15 9 16 15 13 8 -4z m3701 -81 c27 -43 85
-147 127 -230 43 -84 80 -150 82 -147 2 2 2 -9 0 -24 -8 -48 -375 -1888 -377
-1890 -1 -2 -52 2 -112 7 -60 5 -140 11 -179 13 -68 3 -70 4 -67 27 2 14 105
531 229 1150 124 619 226 1137 226 1152 1 16 6 27 11 25 6 -2 32 -39 60 -83z
m-3820 -35 c-3 -5 -10 -7 -15 -3 -5 3 -7 10 -3 15 3 5 10 7 15 3 5 -3 7 -10 3
-15z m70 -7 c3 -5 -1 -9 -9 -9 -8 0 -12 4 -9 9 3 4 7 8 9 8 2 0 6 -4 9 -8z
m-100 -24 c-3 -4 0 -8 6 -8 6 0 37 -17 70 -37 133 -84 261 -167 369 -240 63
-43 119 -80 125 -82 6 -2 21 -12 33 -23 12 -12 27 -17 34 -13 7 5 10 4 5 -3
-4 -6 16 -26 46 -46 29 -19 68 -48 87 -63 l33 -28 -30 -395 c-17 -217 -31
-402 -31 -410 -1 -8 -6 -67 -11 -130 -6 -63 -28 -333 -49 -600 -26 -316 -43
-486 -50 -488 -6 -2 -9 -8 -6 -13 4 -5 0 -7 -7 -4 -18 6 -299 -90 -290 -100 4
-5 2 -5 -4 -2 -16 9 -389 -133 -604 -230 -25 -12 -67 -31 -93 -43 l-49 -21
-39 26 c-22 14 -45 23 -52 19 -7 -4 -9 -4 -5 1 6 6 -233 155 -249 155 -2 0
-32 17 -66 39 -34 21 -111 64 -172 96 -60 32 -133 71 -162 87 -29 16 -58 26
-64 22 -7 -4 -9 -3 -6 3 5 8 -152 91 -518 271 -38 19 -140 66 -225 104 -85 39
-159 74 -165 78 -5 4 -28 13 -50 20 -22 7 -50 20 -62 28 -13 8 -30 12 -38 8
-8 -3 -14 -1 -12 5 1 5 -60 36 -136 67 -132 55 -137 58 -132 82 4 14 11 30 17
35 8 7 9 6 4 -2 -17 -30 5 -9 43 42 81 107 152 276 171 405 23 159 -1 370 -57
500 -3 8 -7 17 -8 20 0 3 -5 16 -9 29 -7 19 -4 28 12 42 12 9 19 19 17 21 -3
3 1 5 8 5 6 0 71 36 143 80 72 44 184 111 250 148 65 37 127 74 137 83 9 8 17
12 17 9 0 -4 21 6 48 21 26 15 99 54 164 87 64 33 114 64 111 69 -4 5 -1 6 4
3 6 -4 93 33 192 81 l182 89 73 -34 c308 -140 703 -95 972 111 39 30 92 46 78
24z m291 -38 c-3 -5 -12 -10 -18 -10 -7 0 -6 4 3 10 19 12 23 12 15 0z m-5621
-272 c35 -120 68 -273 95 -443 42 -252 44 -275 31 -275 -6 0 -43 9 -83 19 -76
20 -177 42 -214 46 -12 2 -26 6 -31 9 -25 15 -679 149 -691 141 -5 -3 -12 -1
-15 4 -3 5 -27 12 -53 16 -27 4 -52 9 -57 12 -4 3 77 52 180 109 193 106 798
414 814 414 5 0 15 -24 24 -52z m1773 -100 c0 -13 -1 -17 -4 -10 -3 6 -10 9
-16 5 -7 -4 -6 1 2 10 17 21 17 21 18 -5z m4483 2 c0 -5 -2 -10 -4 -10 -3 0
-8 5 -11 10 -3 6 -1 10 4 10 6 0 11 -4 11 -10z m21 -257 c13 -16 12 -17 -3 -4
-17 13 -22 21 -14 21 2 0 10 -8 17 -17z m-4276 -55 c5 4 5 1 1 -6 -6 -10 -11
-10 -22 -1 -8 6 -14 14 -14 16 0 3 6 0 13 -6 8 -6 18 -7 22 -3z m35 -48 c5 9
9 8 13 -3 4 -10 0 -14 -11 -13 -9 2 -17 8 -18 15 -2 8 -1 8 3 0 4 -8 7 -8 13
1z m4751 -37 c13 -17 13 -17 -6 -3 -11 8 -22 16 -24 17 -2 2 0 3 6 3 6 0 17
-8 24 -17z m-7894 -38 c0 -8 -4 -12 -9 -9 -5 3 -6 10 -3 15 9 13 12 11 12 -6z
m141 -55 c108 -21 271 -56 362 -76 91 -20 174 -38 185 -40 11 -2 141 -34 289
-72 223 -56 270 -71 276 -87 4 -11 10 -58 14 -105 22 -275 124 -586 260 -795
59 -91 200 -244 266 -290 22 -15 40 -31 40 -34 0 -4 -17 -25 -37 -47 -131
-141 -162 -178 -156 -187 3 -6 2 -7 -4 -4 -15 9 -77 -59 -68 -74 5 -7 4 -10
-2 -6 -5 3 -29 -14 -52 -39 -24 -24 -41 -44 -39 -44 3 0 -13 -19 -36 -42 -49
-51 -87 -96 -231 -278 -59 -74 -115 -145 -126 -158 -11 -13 -17 -28 -13 -34 4
-6 3 -8 -3 -5 -13 8 -65 -53 -59 -70 3 -7 1 -12 -3 -10 -14 3 -83 -92 -75
-105 4 -6 3 -8 -4 -4 -10 6 -241 -306 -244 -329 0 -5 -9 -16 -20 -24 -11 -7
-17 -20 -14 -28 3 -8 1 -11 -4 -8 -6 3 -10 2 -10 -4 0 -12 -60 -102 -75 -113
-5 -4 -12 -5 -16 -3 -5 4 -198 35 -214 35 -3 0 12 -27 32 -59 37 -60 54 -71
106 -71 32 0 33 -6 7 -45 -24 -36 -24 -45 -6 -70 12 -17 16 -18 32 -5 18 14
18 14 2 -5 -14 -17 -14 -23 -3 -38 14 -19 32 -6 20 13 -4 6 -1 9 7 8 7 -2 12
5 12 14 -1 10 3 15 9 11 6 -4 8 0 4 10 -4 10 -2 16 4 14 6 -1 19 14 30 33 15
26 25 34 42 32 97 -14 512 -103 710 -152 284 -70 669 -178 872 -245 39 -13
149 -48 245 -80 96 -31 184 -61 195 -66 12 -6 27 -11 35 -12 8 -2 21 -6 27
-10 7 -5 50 -21 95 -37 46 -16 100 -36 121 -45 21 -9 48 -13 60 -10 14 4 17 3
10 -2 -16 -11 51 -38 68 -27 8 5 9 3 4 -6 -6 -10 -4 -12 9 -7 10 4 15 3 11 -3
-3 -6 -2 -10 3 -10 5 0 27 -7 47 -16 l38 -16 -51 -50 c-29 -28 -49 -54 -46
-59 3 -5 1 -8 -4 -7 -18 5 -74 -43 -68 -58 4 -9 2 -12 -5 -8 -15 9 -201 -177
-194 -194 3 -7 0 -10 -6 -7 -14 9 -41 -15 -35 -32 3 -8 1 -11 -4 -8 -6 4 -36
-22 -68 -56 -31 -35 -67 -73 -79 -85 -23 -22 -31 -40 -13 -29 6 4 7 -1 3 -11
-4 -11 -8 -13 -11 -6 -2 7 -8 12 -14 12 -6 0 -7 -7 -4 -16 3 -8 2 -13 -3 -10
-5 3 -42 -31 -83 -77 -112 -122 -130 -146 -123 -157 3 -5 0 -8 -7 -5 -7 2 -50
-41 -100 -103 -48 -59 -95 -116 -105 -127 -41 -46 -247 -320 -313 -416 l-49
-71 25 -49 c13 -27 28 -49 32 -49 11 1 57 81 54 94 -2 6 -1 8 3 4 11 -11 58
50 49 63 -4 7 -3 9 3 6 6 -4 23 9 37 28 15 19 24 35 21 35 -3 0 10 17 29 38
20 20 34 43 31 50 -3 7 -1 11 4 8 13 -8 63 62 55 76 -4 6 -3 8 3 5 13 -8 76
61 67 74 -3 5 -2 8 3 7 9 -3 47 38 218 237 91 107 295 325 440 470 189 189
458 436 464 426 3 -4 31 -17 61 -29 30 -11 92 -36 137 -56 47 -21 89 -34 100
-30 12 4 14 3 6 -3 -16 -12 160 -89 178 -78 7 5 10 4 6 -2 -5 -8 208 -117 233
-118 3 -1 20 -9 38 -18 18 -10 38 -15 44 -11 6 4 8 3 5 -3 -8 -13 189 -107
204 -97 7 4 9 3 6 -3 -8 -12 141 -86 155 -77 7 5 8 2 3 -6 -6 -10 -4 -12 9 -7
9 4 15 3 12 -1 -7 -12 252 -144 267 -136 7 4 8 3 4 -2 -4 -4 10 -18 32 -29 75
-38 268 -144 345 -190 42 -25 79 -45 82 -45 3 0 39 -20 80 -45 40 -25 76 -45
78 -45 3 0 87 -50 186 -110 100 -61 186 -107 192 -104 6 4 8 2 5 -3 -4 -6 10
-21 30 -33 42 -25 47 -17 -54 -75 -189 -108 -364 -225 -356 -238 3 -6 1 -7 -6
-3 -16 10 -328 -197 -323 -215 1 -6 -2 -8 -8 -4 -11 7 -76 -43 -73 -56 2 -5
-3 -6 -10 -4 -6 3 -46 -20 -87 -51 -86 -63 -104 -80 -77 -71 11 4 16 3 12 -4
-4 -6 -14 -8 -22 -5 -22 9 -209 -134 -191 -146 10 -7 9 -8 -5 -4 -12 4 -52
-23 -130 -84 -172 -138 -177 -142 -170 -153 3 -6 1 -7 -5 -3 -6 4 -31 -13 -56
-36 -24 -24 -46 -43 -48 -43 -13 0 -116 -99 -114 -108 2 -7 1 -9 -2 -4 -6 11
-101 -71 -238 -203 -41 -40 -71 -77 -67 -83 3 -6 1 -7 -5 -3 -11 7 -93 -71
-276 -263 -49 -51 -74 -70 -85 -66 -19 8 -105 35 -109 34 -1 0 -27 7 -58 16
-30 9 -60 13 -67 9 -7 -4 -9 -3 -5 1 8 8 -70 31 -287 84 -194 47 -226 54 -232
48 -7 -8 22 -48 30 -42 4 3 5 2 2 -1 -2 -4 5 -24 15 -45 21 -40 18 -38 140
-69 25 -6 117 -32 205 -57 88 -26 167 -47 175 -48 8 -1 28 -7 43 -14 16 -6 34
-11 42 -11 33 0 20 -26 -63 -127 -179 -219 -202 -250 -196 -267 3 -9 10 -13
15 -10 5 3 8 2 7 -3 -4 -12 25 -73 34 -73 5 0 8 4 8 8 0 5 8 17 18 28 49 54
108 141 105 154 -4 12 -2 12 5 2 7 -10 15 -5 34 20 32 41 52 65 129 149 l60
66 124 -43 c69 -23 125 -40 125 -37 0 3 6 1 13 -5 7 -6 46 -23 87 -37 41 -15
89 -32 105 -39 17 -7 46 -19 65 -26 104 -40 481 -200 539 -230 24 -12 49 -19
57 -16 7 3 16 0 20 -6 5 -7 2 -8 -7 -4 -8 4 -5 0 6 -9 12 -10 29 -14 45 -10
14 3 20 2 13 -3 -8 -5 62 -45 194 -112 239 -121 228 -116 218 -100 -5 9 -4 11
4 6 6 -4 9 -10 7 -14 -6 -9 223 -138 238 -134 6 2 8 0 4 -4 -4 -4 47 -39 115
-78 114 -67 291 -179 310 -196 5 -4 -60 -61 -144 -126 -84 -66 -164 -130 -178
-144 -14 -14 -39 -33 -54 -43 -16 -11 -25 -23 -21 -30 4 -7 4 -9 0 -5 -8 7
-39 -16 -99 -74 -21 -21 -41 -38 -46 -38 -4 0 -18 -11 -32 -26 -21 -22 -21
-24 -4 -18 11 4 17 4 14 0 -4 -4 -16 -8 -27 -11 -24 -4 -76 -51 -319 -290
-100 -98 -171 -176 -168 -183 3 -7 1 -11 -4 -8 -9 6 -42 -24 -110 -100 -24
-27 -66 -73 -93 -101 -27 -29 -48 -53 -46 -53 2 0 -20 -26 -49 -57 -29 -31
-53 -60 -53 -64 0 -3 12 -28 26 -54 l27 -47 53 53 c30 29 53 58 51 64 -1 6 1
10 5 10 15 0 128 120 124 132 -3 7 -1 12 4 10 13 -3 241 224 235 234 -3 4 0
11 6 15 8 5 9 3 4 -7 -8 -12 -6 -12 8 -1 9 8 15 18 14 22 -1 4 0 8 3 7 16 -2
51 27 46 38 -3 9 0 12 8 9 8 -3 29 12 47 34 19 21 46 47 61 57 15 9 25 21 22
26 -3 5 -2 8 3 7 14 -5 133 104 126 115 -3 5 -1 7 4 4 6 -4 35 15 65 41 30 26
96 81 148 122 51 41 104 85 117 98 13 12 27 22 31 22 4 0 18 10 32 23 25 22
125 99 166 127 13 8 51 36 87 61 64 46 64 46 88 28 14 -10 33 -16 44 -13 13 3
16 2 8 -3 -9 -6 -2 -17 22 -36 19 -15 39 -27 44 -27 6 0 11 -4 11 -9 0 -5 17
-20 38 -32 20 -13 39 -26 42 -29 3 -3 21 -17 40 -30 31 -22 208 -161 283 -224
15 -13 28 -32 28 -42 0 -10 -29 -385 -65 -833 -36 -447 -65 -816 -64 -820 2
-20 -8 -33 -62 -75 -33 -26 -58 -52 -55 -57 4 -5 0 -6 -8 -3 -8 3 -21 -1 -28
-8 -8 -8 -47 -41 -88 -76 l-74 -62 -38 23 c-46 27 -233 133 -309 176 -130 74
-415 211 -428 206 -7 -2 -11 -1 -8 3 3 4 -41 28 -97 52 -56 24 -125 54 -154
67 -28 13 -57 23 -62 23 -6 0 -19 4 -29 10 -44 25 -209 81 -225 76 -11 -2 -16
-2 -13 1 3 4 -17 15 -46 25 -62 21 -69 22 -45 4 10 -8 18 -17 17 -20 0 -4 16
-36 36 -72 25 -45 41 -63 51 -60 9 4 11 2 7 -6 -5 -7 0 -9 14 -6 12 4 20 2 17
-2 -3 -5 12 -14 32 -21 135 -43 610 -274 822 -398 25 -15 53 -30 61 -34 8 -4
35 -20 60 -36 84 -55 155 -95 163 -93 5 1 6 -2 3 -7 -4 -5 3 -12 14 -16 25 -8
25 -17 0 -40 -11 -10 -17 -22 -13 -28 3 -6 1 -7 -5 -3 -14 8 -174 -153 -165
-167 3 -6 1 -7 -4 -4 -14 9 -115 -101 -107 -115 4 -6 2 -8 -4 -5 -5 4 -29 -17
-53 -45 -24 -29 -51 -61 -61 -71 -10 -10 -16 -23 -12 -28 3 -5 0 -8 -8 -7 -7
2 -12 -5 -12 -14 1 -10 -2 -16 -6 -13 -4 2 -16 -9 -28 -25 -20 -27 -21 -29 -4
-52 10 -12 24 -35 31 -50 8 -16 17 -28 20 -28 11 0 32 41 26 50 -3 6 0 8 7 6
15 -5 71 58 71 79 0 8 3 13 7 12 4 -1 78 71 166 160 87 89 192 191 233 227
l74 65 31 -21 c17 -12 33 -25 36 -28 17 -21 72 -50 81 -44 7 4 9 3 6 -3 -4 -5
18 -28 48 -49 30 -21 56 -44 59 -50 8 -21 -14 -224 -38 -347 -13 -67 -39 -167
-57 -222 -18 -55 -33 -102 -34 -105 -19 -65 -118 -266 -166 -337 -16 -23 -29
-45 -29 -48 0 -4 -15 -26 -34 -49 l-35 -42 41 -44 c91 -101 132 -141 206 -199
68 -53 186 -131 199 -131 3 0 18 -9 34 -21 16 -11 37 -18 45 -15 8 3 13 2 10
-3 -9 -14 156 -79 280 -110 120 -30 261 -51 344 -51 39 0 49 5 78 38 132 146
230 294 288 436 21 53 43 96 47 96 12 0 35 -29 104 -128 83 -120 95 -141 87
-165 -10 -31 -211 -228 -280 -275 -275 -185 -556 -265 -869 -248 -389 21 -719
189 -969 495 -50 61 -174 262 -370 599 -41 70 -203 345 -361 612 -158 267
-393 665 -523 885 -129 220 -290 492 -357 605 -103 172 -736 1246 -1033 1750
-47 80 -111 188 -142 240 -32 52 -191 322 -355 600 -163 278 -361 613 -440
745 -193 325 -364 615 -423 716 -26 46 -201 343 -388 659 -188 316 -475 802
-638 1080 -164 278 -326 552 -361 610 -35 58 -150 254 -257 435 -107 182 -467
792 -801 1357 -334 565 -607 1029 -607 1032 0 9 252 201 430 328 212 151 518
356 695 465 173 107 299 183 302 183 2 0 92 -18 201 -40z m8953 -1017 c13 -16
12 -17 -3 -4 -17 13 -22 21 -14 21 2 0 10 -8 17 -17z m-5151 -178 c96 -42 193
-85 215 -96 22 -10 99 -46 170 -79 72 -33 142 -68 158 -76 15 -8 33 -12 40 -8
6 4 9 4 5 0 -9 -10 302 -167 315 -159 6 3 7 1 3 -5 -4 -7 -3 -12 2 -12 4 0 78
-37 163 -83 85 -45 157 -83 162 -84 4 -2 18 -10 32 -19 13 -9 29 -13 35 -9 6
4 9 2 8 -5 -2 -6 26 -26 62 -46 36 -19 83 -46 105 -58 22 -13 46 -21 54 -18 8
2 11 0 7 -6 -8 -13 71 -55 86 -46 7 4 8 2 4 -4 -4 -7 2 -16 16 -22 13 -6 50
-29 83 -50 33 -22 79 -50 103 -62 23 -12 42 -25 42 -28 0 -3 -56 -34 -125 -68
-69 -35 -123 -67 -120 -72 4 -6 -1 -7 -11 -3 -12 4 -15 3 -10 -5 4 -8 2 -10
-8 -6 -13 5 -24 0 -93 -43 -16 -10 -32 -18 -38 -18 -5 -1 -9 -6 -8 -13 2 -7
-4 -9 -14 -5 -11 4 -14 3 -9 -5 5 -8 1 -10 -10 -5 -13 5 -15 3 -9 -7 5 -8 4
-11 -3 -7 -9 6 -180 -84 -308 -162 -24 -14 -81 -48 -126 -75 -83 -50 -257
-160 -312 -199 -45 -31 -198 -132 -229 -151 -15 -9 -25 -21 -22 -25 2 -5 -3
-8 -13 -7 -9 0 -16 -5 -14 -12 1 -8 -2 -11 -8 -7 -5 3 -10 1 -10 -6 0 -7 -3
-10 -6 -6 -4 3 -22 -6 -41 -20 -26 -20 -31 -28 -21 -36 9 -6 8 -7 -6 -3 -20 7
-119 -61 -110 -76 3 -4 -1 -5 -8 -3 -8 3 -23 -2 -34 -12 -11 -10 -76 -60 -144
-112 -69 -52 -139 -106 -156 -120 -18 -14 -45 -36 -60 -48 -94 -72 -249 -212
-246 -222 1 -7 -2 -10 -7 -6 -13 8 -62 -35 -54 -48 3 -6 1 -7 -5 -3 -7 4 -31
-11 -55 -34 -50 -46 -66 -48 -137 -20 -27 11 -50 17 -50 14 0 -4 -6 -2 -12 4
-24 19 -348 133 -360 126 -6 -4 -8 -3 -5 2 7 13 -219 88 -234 78 -7 -4 -9 -3
-6 3 4 6 -9 15 -31 21 -20 5 -89 26 -152 46 -125 40 -417 125 -600 174 -242
66 -733 178 -813 186 -17 2 -39 6 -47 9 -8 3 -55 13 -105 22 -49 8 -101 18
-114 21 l-24 5 23 25 c13 13 20 24 17 24 -4 0 2 9 13 20 12 12 18 26 14 32 -4
7 -3 8 4 4 7 -4 12 -2 12 4 0 6 17 32 38 59 71 92 117 163 116 176 -1 8 2 13
6 12 13 -3 60 57 55 71 -3 7 -1 11 3 8 5 -3 26 18 48 47 48 63 207 265 229
290 9 10 13 23 9 29 -4 6 -3 8 3 5 14 -9 37 19 28 32 -3 6 0 9 7 6 7 -2 27 15
45 38 18 23 45 56 60 73 56 63 98 118 95 127 -1 5 1 6 6 3 10 -6 79 74 74 87
-1 5 2 6 7 3 5 -3 23 11 40 31 49 57 242 263 280 299 18 17 31 36 27 42 -13
22 12 20 65 -4 145 -68 286 -92 470 -82 149 7 247 32 374 92 107 51 149 78
259 169 44 37 84 63 92 60 18 -7 174 48 168 59 -3 4 1 5 9 2 8 -3 38 6 66 20
28 15 54 27 58 28 5 1 30 14 56 30 26 15 51 28 55 28 4 0 27 16 52 35 36 28
52 34 80 31 19 -2 114 -38 210 -81z m-684 -43 c-17 -16 -18 -16 -5 5 7 12 15
20 18 17 3 -2 -3 -12 -13 -22z m-33 -67 c-3 -9 -8 -14 -10 -11 -3 3 -2 9 2 15
9 16 15 13 8 -4z m6690 -256 c136 -10 157 -14 153 -28 -6 -20 -96 -476 -96
-486 0 -18 -26 8 -92 96 -40 53 -98 127 -129 165 -82 102 -82 101 -63 186 20
89 20 89 47 84 12 -3 93 -10 180 -17z m-262 -96 c13 -16 12 -17 -3 -4 -17 13
-22 21 -14 21 2 0 10 -8 17 -17z m-4351 -167 c0 -2 -7 -7 -16 -10 -8 -3 -12
-2 -9 4 6 10 25 14 25 6z m1320 -32 c0 -8 -19 -13 -24 -6 -3 5 1 9 9 9 8 0 15
-2 15 -3z m440 -76 c0 -24 -4 -92 -10 -153 -5 -60 -18 -227 -30 -369 -11 -143
-23 -262 -25 -265 -3 -2 -19 5 -35 17 -16 12 -33 22 -39 22 -5 0 -12 7 -15 16
-4 9 -13 14 -22 10 -8 -3 -13 -2 -10 3 3 5 -1 14 -9 21 -8 7 -15 9 -15 4 0 -4
-11 3 -24 15 -15 14 -30 20 -37 16 -7 -5 -10 -4 -5 3 3 6 -13 23 -36 39 -24
16 -77 53 -118 81 -41 29 -81 50 -88 47 -7 -3 -11 -1 -7 4 5 9 -93 77 -252
177 -35 21 -63 42 -63 45 0 3 62 29 138 58 75 30 151 59 167 66 24 10 256 95
300 109 6 2 15 5 20 7 6 2 53 18 105 35 52 18 98 33 103 33 4 1 7 -18 7 -41z
m2630 -188 c40 -54 77 -97 82 -94 4 3 6 -1 3 -8 -3 -7 12 -36 32 -63 21 -28
50 -69 65 -92 l27 -42 -174 -873 c-96 -480 -175 -875 -175 -878 0 -3 -83 -5
-185 -6 -102 0 -185 3 -185 8 0 10 420 2118 425 2136 3 6 6 12 8 12 2 0 37
-45 77 -100z m-3985 50 c3 -6 -1 -7 -9 -4 -18 7 -21 14 -7 14 6 0 13 -4 16
-10z m332 -237 c12 -5 14 -3 8 7 -5 9 -4 11 4 6 6 -4 8 -12 5 -18 -5 -8 -1 -9
10 -5 10 4 15 3 11 -3 -7 -12 193 -143 206 -134 5 3 8 1 7 -4 -3 -9 74 -72 87
-72 3 0 16 -9 28 -20 12 -11 27 -18 35 -15 7 2 10 1 7 -5 -3 -5 7 -16 22 -24
27 -14 207 -143 410 -293 51 -37 95 -75 98 -84 3 -9 1 -68 -5 -130 -11 -119
-74 -923 -110 -1399 -11 -151 -23 -289 -25 -306 -5 -27 -15 -35 -70 -62 -36
-18 -67 -32 -71 -32 -10 0 -368 -181 -384 -194 -8 -7 -30 -19 -49 -26 -31 -12
-32 -14 -15 -27 10 -7 13 -13 8 -13 -6 0 -15 5 -20 10 -8 8 -30 0 -75 -25
-107 -60 -108 -60 -130 -47 -10 7 -29 18 -41 25 -11 6 -51 31 -87 55 -36 23
-72 40 -79 37 -7 -3 -10 -1 -7 5 7 12 -32 33 -47 24 -6 -4 -8 -3 -5 2 7 13
-131 96 -145 88 -6 -4 -8 -3 -5 3 4 5 -6 16 -21 24 -15 7 -67 37 -117 65 -217
122 -461 250 -780 408 -326 162 -384 188 -396 181 -5 -4 -8 -1 -7 5 2 6 -28
24 -67 41 -38 16 -83 36 -100 43 -27 13 -139 63 -270 121 -27 12 -120 50 -205
84 -85 35 -165 68 -178 74 l-23 11 28 26 c15 14 63 54 105 89 43 35 75 68 71
74 -3 6 -1 7 6 3 13 -8 163 112 156 125 -3 4 0 11 6 15 8 4 9 3 5 -4 -4 -7 -5
-12 -3 -12 3 0 80 57 173 126 93 69 185 137 204 150 149 106 175 126 172 135
-1 6 2 8 8 4 6 -3 32 8 58 26 26 18 77 53 114 77 37 24 65 49 61 55 -3 6 -1 7
5 3 7 -4 36 8 64 27 65 41 170 106 221 136 20 13 34 27 31 33 -4 7 -2 8 4 4
10 -6 78 27 152 74 26 16 124 72 165 95 151 82 238 128 363 190 78 40 139 75
135 80 -5 4 -3 5 4 1 14 -8 84 24 77 36 -3 4 1 6 8 3 7 -2 45 11 83 29 39 19
76 33 83 30 6 -2 19 -7 29 -11z m1018 -433 c3 -6 -1 -7 -9 -4 -18 7 -21 14 -7
14 6 0 13 -4 16 -10z m-3325 -784 c0 -2 -8 -10 -17 -17 -16 -13 -17 -12 -4 4
13 16 21 21 21 13z m-130 -480 c0 -2 -7 -7 -16 -10 -8 -3 -12 -2 -9 4 6 10 25
14 25 6z m5895 -444 c-4 -15 -31 -150 -61 -301 -29 -150 -55 -275 -56 -277 -2
-1 -40 45 -84 104 -44 59 -86 106 -93 104 -7 -1 -10 2 -6 7 8 13 -26 52 -38
44 -6 -3 -7 -1 -3 5 3 5 -5 24 -19 40 -53 63 -54 72 -30 189 15 75 26 108 38
112 9 3 93 5 187 3 l172 -3 -7 -27z m-4645 -257 c0 -2 -10 -9 -22 -15 -22 -11
-22 -10 -4 4 21 17 26 19 26 11z m4265 -15 c3 -5 1 -10 -4 -10 -6 0 -11 5 -11
10 0 6 2 10 4 10 3 0 8 -4 11 -10z m20 -391 c51 -69 91 -116 97 -113 7 4 8 2
4 -5 -5 -7 10 -35 35 -68 l43 -55 -189 -947 -190 -946 -125 -7 c-69 -4 -151
-11 -183 -16 -32 -5 -60 -6 -62 -1 -4 6 436 2234 451 2282 8 26 20 14 119
-124z m-2345 -279 c-12 -157 -24 -291 -26 -298 -3 -10 -15 -5 -42 16 -64 49
-286 195 -299 195 -7 0 -9 5 -6 10 4 6 0 8 -10 4 -9 -3 -16 -2 -14 2 1 5 -35
33 -81 63 l-83 54 35 19 c19 10 32 23 29 28 -3 6 -1 7 5 3 14 -9 163 65 155
77 -3 6 -1 7 5 3 11 -7 62 13 62 24 0 4 6 7 13 7 6 0 62 24 122 53 61 29 116
54 123 56 8 1 17 6 20 9 15 15 13 -52 -8 -325z m-633 164 c-3 -3 -12 -4 -19
-1 -8 3 -5 6 6 6 11 1 17 -2 13 -5z m88 -154 c-3 -5 -12 -10 -18 -10 -7 0 -6
4 3 10 19 12 23 12 15 0z m-3 -207 c106 -70 195 -131 196 -135 2 -4 8 -8 13
-8 6 0 20 -9 32 -20 12 -11 27 -18 35 -15 7 2 11 1 8 -4 -3 -5 13 -21 37 -37
67 -45 161 -116 172 -130 7 -8 8 -43 4 -101 -12 -147 -88 -1111 -130 -1638
-22 -291 -26 -306 -71 -321 -27 -8 -198 -113 -225 -137 -13 -11 -23 -17 -23
-13 0 5 -7 3 -15 -4 -8 -7 -13 -16 -10 -20 3 -4 -3 -7 -13 -6 -9 0 -16 -5 -14
-12 1 -8 -2 -11 -8 -7 -15 9 -112 -54 -103 -68 3 -6 1 -7 -5 -3 -10 6 -43 -10
-77 -37 -5 -4 -34 -25 -63 -46 l-53 -39 -82 54 c-45 30 -88 52 -95 49 -8 -3
-10 0 -6 7 5 8 2 9 -10 5 -9 -4 -15 -3 -12 2 3 5 -15 22 -42 39 -91 57 -177
105 -189 105 -7 0 -10 4 -8 8 7 10 -25 20 -37 12 -6 -3 -8 -2 -5 4 3 5 -15 21
-41 35 -209 110 -381 198 -387 198 -3 0 -3 -5 1 -12 4 -7 3 -8 -5 -4 -6 4 -9
11 -7 15 11 17 -567 276 -839 375 -71 27 -139 52 -150 58 -12 5 -27 10 -35 11
-8 2 -21 6 -27 10 -14 9 -68 28 -253 89 l-125 41 170 165 c94 90 209 198 257
239 48 42 85 80 81 86 -3 6 -1 7 5 3 6 -4 33 15 62 42 27 26 50 46 50 43 0 -3
17 11 38 31 32 31 184 155 296 241 32 25 35 31 24 45 -12 15 -11 16 4 4 13
-10 20 -11 30 -3 7 6 34 28 60 47 26 20 45 41 41 47 -3 6 -1 7 5 3 14 -8 114
62 106 75 -3 5 1 6 9 4 18 -8 73 35 57 45 -8 5 -7 9 5 13 9 4 13 3 10 -3 -12
-20 9 -9 74 38 133 96 486 332 497 332 4 0 43 24 129 79 22 14 43 30 47 36 4
5 8 6 8 1 0 -5 8 -2 18 6 9 8 82 52 162 98 80 46 159 92 175 102 17 10 35 16
42 14 6 -3 98 -62 205 -133z m-35 82 c0 -8 -4 -12 -9 -9 -5 3 -6 10 -3 15 9
13 12 11 12 -6z m318 -53 c-3 -3 -11 0 -18 7 -9 10 -8 11 6 5 10 -3 15 -9 12
-12z m600 -372 c3 -5 1 -10 -4 -10 -6 0 -11 5 -11 10 0 6 2 10 4 10 3 0 8 -4
11 -10z m-155 -196 c0 -2 -9 0 -20 6 -11 6 -20 13 -20 16 0 2 9 0 20 -6 11 -6
20 -13 20 -16z m175 -134 c3 -5 1 -10 -4 -10 -6 0 -11 5 -11 10 0 6 2 10 4 10
3 0 8 -4 11 -10z m225 -186 c0 -2 -9 0 -20 6 -11 6 -20 13 -20 16 0 2 9 0 20
-6 11 -6 20 -13 20 -16z m-3089 -61 c13 -16 12 -17 -3 -4 -17 13 -22 21 -14
21 2 0 10 -8 17 -17z m-271 -347 c0 -2 -8 -10 -17 -17 -16 -13 -17 -12 -4 4
13 16 21 21 21 13z m4180 -371 c7 -9 8 -15 2 -15 -5 0 -12 7 -16 15 -3 8 -4
15 -2 15 2 0 9 -7 16 -15z m690 -283 c0 -33 -23 -132 -30 -132 -4 0 -18 15
-31 34 -13 19 -28 32 -33 29 -5 -3 -6 -1 -3 4 4 6 -2 22 -13 36 -11 14 -20 28
-20 31 0 3 26 7 58 9 31 2 60 4 65 5 4 1 7 -6 7 -16z m-395 -62 c3 -5 1 -10
-4 -10 -6 0 -11 5 -11 10 0 6 2 10 4 10 3 0 8 -4 11 -10z m50 -50 c15 -22 32
-37 38 -33 6 3 7 1 3 -5 -8 -14 93 -164 105 -156 4 2 11 -1 15 -7 4 -8 3 -9
-4 -5 -18 11 -16 5 38 -85 27 -46 50 -91 50 -99 0 -8 -81 -420 -180 -914 -99
-494 -180 -900 -180 -901 0 -4 -44 -17 -53 -16 -4 1 -55 -10 -112 -24 -58 -14
-112 -25 -120 -25 -10 0 -13 -5 -9 -12 4 -7 3 -8 -4 -4 -7 4 -28 2 -49 -3 -20
-6 -38 -9 -40 -7 -2 1 98 510 222 1130 124 620 223 1131 220 1136 -3 6 -1 10
4 10 6 0 11 11 11 23 0 20 7 37 15 37 1 0 15 -18 30 -40z m-1975 -691 c-6 -58
-10 -116 -10 -130 0 -13 -6 -94 -14 -179 -8 -85 -12 -158 -10 -162 2 -3 0 -9
-4 -12 -5 -3 -38 17 -73 44 -148 115 -248 180 -266 174 -13 -4 -14 -3 -5 3 10
7 -1 20 -43 48 -30 21 -52 42 -48 45 13 11 176 116 201 129 12 7 20 17 16 23
-4 7 -3 8 4 4 6 -4 58 20 114 54 57 33 110 64 118 69 27 16 30 -3 20 -110z
m210 -666 c0 -8 -38 17 -51 33 -9 11 -2 9 19 -6 17 -13 32 -25 32 -27z m161
-140 c13 -16 12 -17 -3 -4 -17 13 -22 21 -14 21 2 0 10 -8 17 -17z m-170 -170
c13 -16 12 -17 -3 -4 -17 13 -22 21 -14 21 2 0 10 -8 17 -17z m410 -50 c13
-16 12 -17 -3 -4 -17 13 -22 21 -14 21 2 0 10 -8 17 -17z m-2367 -167 c-3 -8
-13 -17 -22 -21 -13 -5 -13 -2 3 15 21 24 26 25 19 6z m-80 -80 c-3 -8 -13
-17 -22 -21 -13 -5 -13 -2 3 15 21 24 26 25 19 6z m3589 -778 c-34 -169 -61
-277 -70 -287 -14 -14 -15 -13 -8 8 5 18 4 22 -6 16 -8 -5 -11 -5 -7 0 11 12
-222 341 -239 338 -5 -1 -9 24 -9 55 l1 57 140 33 c77 19 146 37 153 40 8 4
33 8 56 9 l43 3 -54 -272z m-289 -377 c52 -79 110 -172 127 -206 l33 -62 -118
-589 c-64 -324 -129 -641 -143 -704 -25 -115 -79 -280 -91 -280 -4 0 -29 32
-57 70 -27 39 -52 70 -55 70 -3 0 -18 18 -34 40 -16 21 -34 36 -39 33 -6 -3
-7 -1 -3 5 7 12 -42 75 -53 67 -4 -2 -8 1 -9 8 -1 7 -4 24 -7 38 -4 16 55 336
155 835 88 445 163 817 166 828 8 25 14 19 128 -153z m-1679 -318 c-4 -49 -8
-93 -10 -99 -4 -12 -41 -12 -52 1 -5 4 -2 5 6 0 10 -6 12 -4 7 4 -5 7 -15 10
-23 7 -8 -3 -11 -1 -8 4 3 5 -13 22 -36 37 l-41 27 28 20 c16 12 47 35 69 53
63 50 67 46 60 -54z m274 -587 c9 -11 9 -16 -1 -22 -7 -4 -10 -4 -6 1 4 4 3
14 -3 22 -6 7 -9 13 -6 13 2 0 10 -6 16 -14z m552 -173 c13 -16 12 -17 -3 -4
-17 13 -22 21 -14 21 2 0 10 -8 17 -17z"/>
</g>
</svg>
